# xmcd
#
# Track frame offsets:
#	150
#	15962
#	34445
#	50495
#	70837
#	91777
#	103145
#	118245
#	134697
#	155795
#
# Disc length: 2301 seconds
#
# Revision: 3
# Processed by: cddbd v1.5.1PL0 Copyright (c) Steve Scherf et al.
# Submitted via: audiograbber 1.83.01
#
DISCID=8b08fb0a
DTITLE=George Strait - One Step At A Time
DYEAR=1998
DGENRE=Country
TTITLE0=I Just Want To Dance With You
TTITLE1=One Step At A Time
TTITLE2=True
TTITLE3=Remember The Alamo
TTITLE4=Maria
TTITLE5=We Really Shouldn't Be Doing This
TTITLE6=Why Not Now
TTITLE7=That's The Breaks
TTITLE8=Neon Row
TTITLE9=You Haven't Left Me Yet
EXTD=YEAR: 1998
EXTT0=
EXTT1=
EXTT2=
EXTT3=
EXTT4=
EXTT5=
EXTT6=
EXTT7=
EXTT8=
EXTT9=
PLAYORDER=
